# xmcd
#
# Track frame offsets: 
#        150
#        2559
#        22047
#        24153
#        47345
#        50084
#        65565
#        79818
#        99403
#        111239
#        144625
#        174791
#        182466
#        212503
#        221127
#        247642
#        255721
#        281295
#        288114
#        332016
#        335742
#
# Disc length: 4757 seconds
#
# Revision: 0
# Processed by: cddbd v1.5.2PL0 Copyright (c) Steve Scherf et al.
# Submitted via: ExactAudioCopy v0.99pb5
#
DISCID=1e129315
DTITLE=Lucinda Williams - NY [2 Essence]
DYEAR=2007
DGENRE=Folk/Rock
TTITLE0="Hey everybody"
TTITLE1=Lonely Girls
TTITLE2="This is called 'Steal Your Love'"
TTITLE3=Steal Your Love [w. Jim Lauderdale]
TTITLE4="It's worth it"
TTITLE5=I Envy the Wind
TTITLE6="Okay, I'm making notes"
TTITLE7=Blue
TTITLE8="Thank you for coming down"
TTITLE9=Out of Touch
TTITLE10=Are You Down?
TTITLE11="Yeah, I think it's good"
TTITLE12=Essence
TTITLE13="This next couldn't be"
TTITLE14=Reason To Cry
TTITLE15="This is Jim Lauderdale"
TTITLE16=Get Right With God [f. Jim Lauderdale]
TTITLE17="Dad's Dad was"
TTITLE18=Bus to Baton Rouge
TTITLE19="I actually was thinking about"
TTITLE20=Broken Butterflies
EXTD=
EXTT0=
EXTT1=
EXTT2=
EXTT3=
EXTT4=
EXTT5=
EXTT6=
EXTT7=
EXTT8=
EXTT9=
EXTT10=
EXTT11=
EXTT12=
EXTT13=
EXTT14=
EXTT15=
EXTT16=
EXTT17=
EXTT18=
EXTT19=
EXTT20=
PLAYORDER=
